<svg width="16" height="16" viewBox="0 0 16 16" fill="none" xmlns="http://www.w3.org/2000/svg">
<g opacity="0.2" clip-path="url(#clip0)">
<path d="M7.9247 7.56477L5.85923 5.5323C6.40011 4.94465 6.73245 4.16747 6.73245 3.31227C6.73219 1.48284 5.22534 0 3.3664 0C1.50746 0 0.000610352 1.48284 0.000610352 3.31227C0.000610352 5.14171 1.50746 6.62455 3.3664 6.62455C4.16959 6.62455 4.90626 6.34673 5.4849 5.88487L7.55838 7.92535C7.65941 8.02488 7.82344 8.02488 7.92447 7.92535C8.02573 7.82583 8.02573 7.66429 7.9247 7.56477ZM3.3664 6.11493C1.79354 6.11493 0.518484 4.86014 0.518484 3.31227C0.518484 1.7644 1.79354 0.509613 3.3664 0.509613C4.93928 0.509613 6.21431 1.7644 6.21431 3.31227C6.21431 4.86014 4.93928 6.11493 3.3664 6.11493Z" fill="black"/>
</g>
<defs>
<clipPath id="clip0">
<rect width="8" height="8" fill="white"/>
</clipPath>
</defs>
</svg>
